<svg width="48" height="48" viewBox="0 0 48 48" fill="none" xmlns="http://www.w3.org/2000/svg">
  <defs>
    <linearGradient id="gradient" x1="0%" y1="0%" x2="100%" y2="100%">
      <stop offset="0%" stop-color="#FF735A" />
      <stop offset="100%" stop-color="#E23030" />
    </linearGradient>
  </defs>
<path d="M6.91679 28.9123L30.6148 5.21434C31.0053 4.82382 31.6384 4.82382 32.029 5.21434L34.3911 7.57643C32.9044 9.72015 33.1161 12.6852 35.026 14.5951C36.9358 16.5049 39.9009 16.7166 42.0446 15.23L44.6743 17.8596C45.0648 18.2502 45.0648 18.8833 44.6743 19.2739L20.9763 42.9718C20.5858 43.3623 19.9526 43.3623 19.5621 42.9718L16.9614 40.3711C18.6174 38.2146 18.4582 35.112 16.4835 33.1374C14.5089 31.1628 11.4064 31.0035 9.24983 32.6596L6.9168 30.3265C6.52627 29.936 6.52627 29.3028 6.91679 28.9123ZM35.026 6.81683L35.026 6.81688C35.026 6.81687 35.026 6.81685 35.026 6.81683ZM42.8042 14.595C42.8035 14.5957 42.8027 14.5965 42.8019 14.5973C42.8027 14.5965 42.8034 14.5958 42.8041 14.5951L42.8042 14.595Z" stroke="url(#gradient)" stroke-width="2"/>
<path d="M20.2131 22.8739C19.7733 22.0107 20.695 21.0891 21.5581 21.5289L23.2279 22.3796C23.6139 22.5763 24.0826 22.5021 24.389 22.1957L25.7141 20.8706C26.3991 20.1856 27.5604 20.7774 27.4089 21.7342L27.1157 23.5851C27.048 24.013 27.2634 24.4359 27.6494 24.6325L29.3192 25.4833C30.1823 25.9231 29.9784 27.2105 29.0216 27.362L27.1707 27.6552C26.7428 27.7229 26.4072 28.0585 26.3394 28.4864L26.0463 30.3374C25.8947 31.2942 24.6074 31.4981 24.1676 30.6349L23.3168 28.9652C23.1201 28.5792 22.6972 28.3637 22.2694 28.4315L20.4184 28.7246C19.4616 28.8762 18.8699 27.7148 19.5549 27.0298L20.88 25.7047C21.1863 25.3984 21.2606 24.9296 21.0639 24.5436L20.2131 22.8739Z" fill="url(#gradient)"/>
<path d="M25 11L39 25" stroke="url(#gradient)" stroke-width="2" stroke-linecap="square" stroke-dasharray="3 3"/>
</svg>
