<svg width="48" height="48" viewBox="0 0 48 48" fill="none" xmlns="http://www.w3.org/2000/svg">
  <defs>
    <linearGradient id="gradient" x1="0%" y1="0%" x2="100%" y2="100%">
      <stop offset="0%" stop-color="#FF735A" />
      <stop offset="100%" stop-color="#E23030" />
    </linearGradient>
  </defs>
<path d="M16.0489 14.927C16.3483 14.0057 17.6517 14.0057 17.9511 14.9271L18.5716 16.8369C18.7055 17.2489 19.0894 17.5279 19.5227 17.5279H21.5308C22.4995 17.5279 22.9023 18.7675 22.1186 19.3369L20.494 20.5172C20.1435 20.7719 19.9968 21.2232 20.1307 21.6353L20.7512 23.5451C21.0506 24.4664 19.9961 25.2325 19.2124 24.6631L17.5878 23.4828C17.2373 23.2281 16.7627 23.2281 16.4122 23.4828L14.7876 24.6631C14.0039 25.2325 12.9494 24.4664 13.2488 23.5451L13.8693 21.6353C14.0032 21.2232 13.8565 20.7719 13.506 20.5172L11.8814 19.3369C11.0977 18.7675 11.5005 17.5279 12.4692 17.5279H14.4773C14.9106 17.5279 15.2945 17.2489 15.4284 16.8369L16.0489 14.927Z" fill="url(#gradient)" />
<path d="M30.0489 14.927C30.3483 14.0057 31.6517 14.0057 31.9511 14.9271L32.5716 16.8369C32.7055 17.2489 33.0894 17.5279 33.5227 17.5279H35.5308C36.4995 17.5279 36.9023 18.7675 36.1186 19.3369L34.494 20.5172C34.1435 20.7719 33.9968 21.2232 34.1307 21.6353L34.7512 23.5451C35.0506 24.4664 33.9961 25.2325 33.2124 24.6631L31.5878 23.4828C31.2373 23.2281 30.7627 23.2281 30.4122 23.4828L28.7876 24.6631C28.0039 25.2325 26.9494 24.4664 27.2488 23.5451L27.8693 21.6353C28.0032 21.2232 27.8565 20.7719 27.506 20.5172L25.8814 19.3369C25.0977 18.7675 25.5005 17.5279 26.4692 17.5279H28.4773C28.9106 17.5279 29.2945 17.2489 29.4284 16.8369L30.0489 14.927Z" fill="url(#gradient)" />
<path d="M27.2231 33.2281L26.5874 32.4561L27.2231 33.2281ZM7 13C7 11.3431 8.34315 10 10 10V8C7.23858 8 5 10.2386 5 13H7ZM7 29V13H5V29H7ZM10 32C8.34315 32 7 30.6569 7 29H5C5 31.7614 7.23858 34 10 34V32ZM18 32H10V34H18V32ZM20 37.881V34H18V37.881H20ZM26.5874 32.4561L20 37.881L21.2714 39.4249L27.8588 34L26.5874 32.4561ZM38 32H27.8588V34H38V32ZM41 29C41 30.6569 39.6569 32 38 32V34C40.7614 34 43 31.7614 43 29H41ZM41 13V29H43V13H41ZM38 10C39.6569 10 41 11.3431 41 13H43C43 10.2386 40.7614 8 38 8V10ZM10 10H38V8H10V10ZM27.8588 34L27.8588 34V32C27.3949 32 26.9454 32.1612 26.5874 32.4561L27.8588 34ZM18 37.881C18 39.5713 19.9667 40.4994 21.2714 39.4249L20 37.881L20 37.881H18ZM18 34L18 34H20C20 32.8954 19.1046 32 18 32V34Z" fill="url(#gradient)" />
<path d="M23.0489 14.927C23.3483 14.0057 24.6517 14.0057 24.9511 14.9271L26.0206 18.2188C26.1545 18.6309 26.5385 18.9098 26.9717 18.9098H30.4329C31.4016 18.9098 31.8044 20.1494 31.0207 20.7188L28.2205 22.7533C27.87 23.0079 27.7234 23.4593 27.8572 23.8713L28.9268 27.1631C29.2261 28.0844 28.1717 28.8506 27.388 28.2812L24.5878 26.2467C24.2373 25.9921 23.7627 25.9921 23.4122 26.2467L20.612 28.2812C19.8283 28.8506 18.7739 28.0844 19.0732 27.1631L20.1428 23.8713C20.2766 23.4593 20.13 23.0079 19.7795 22.7533L16.9793 20.7188C16.1956 20.1494 16.5984 18.9098 17.5671 18.9098H21.0283C21.4615 18.9098 21.8455 18.6309 21.9794 18.2188L23.0489 14.927Z" fill="url(#gradient)" />
</svg>
